<svg width="51" height="42" viewBox="0 0 51 42" fill="none" xmlns="http://www.w3.org/2000/svg">
<g filter="url(#filter0_d_452_48)">
<path d="M15.1406 16.4062H35.8594C36.2821 16.4062 36.6874 16.268 36.9863 16.0218C37.2852 15.7757 37.4531 15.4418 37.4531 15.0938C37.4531 14.7457 37.2852 14.4118 36.9863 14.1657C36.6874 13.9195 36.2821 13.7813 35.8594 13.7812H15.1406C14.7179 13.7812 14.3126 13.9195 14.0137 14.1657C13.7148 14.4118 13.5469 14.7457 13.5469 15.0938C13.5469 15.4418 13.7148 15.7757 14.0137 16.0218C14.3126 16.268 14.7179 16.4062 15.1406 16.4062Z" fill="#D012FF"/>
<path d="M35.8594 19.6875H15.1406C14.7179 19.6875 14.3126 19.8258 14.0137 20.0719C13.7148 20.3181 13.5469 20.6519 13.5469 21C13.5469 21.3481 13.7148 21.6819 14.0137 21.9281C14.3126 22.1742 14.7179 22.3125 15.1406 22.3125H35.8594C36.2821 22.3125 36.6874 22.1742 36.9863 21.9281C37.2852 21.6819 37.4531 21.3481 37.4531 21C37.4531 20.6519 37.2852 20.3181 36.9863 20.0719C36.6874 19.8258 36.2821 19.6875 35.8594 19.6875Z" fill="#D012FF"/>
<path d="M35.8594 25.5938H15.1406C14.7179 25.5938 14.3126 25.732 14.0137 25.9782C13.7148 26.2243 13.5469 26.5582 13.5469 26.9062C13.5469 27.2543 13.7148 27.5882 14.0137 27.8343C14.3126 28.0805 14.7179 28.2188 15.1406 28.2188H35.8594C36.2821 28.2188 36.6874 28.0805 36.9863 27.8343C37.2852 27.5882 37.4531 27.2543 37.4531 26.9062C37.4531 26.5582 37.2852 26.2243 36.9863 25.9782C36.6874 25.732 36.2821 25.5938 35.8594 25.5938Z" fill="#D012FF"/>
</g>
<defs>
<filter id="filter0_d_452_48" x="-11.7" y="-11.7" width="74.4" height="65.4" filterUnits="userSpaceOnUse" color-interpolation-filters="sRGB">
<feFlood flood-opacity="0" result="BackgroundImageFix"/>
<feColorMatrix in="SourceAlpha" type="matrix" values="0 0 0 0 0 0 0 0 0 0 0 0 0 0 0 0 0 0 127 0" result="hardAlpha"/>
<feOffset/>
<feGaussianBlur stdDeviation="5.85"/>
<feComposite in2="hardAlpha" operator="out"/>
<feColorMatrix type="matrix" values="0 0 0 0 1 0 0 0 0 0 0 0 0 0 0.721569 0 0 0 0.25 0"/>
<feBlend mode="normal" in2="BackgroundImageFix" result="effect1_dropShadow_452_48"/>
<feBlend mode="normal" in="SourceGraphic" in2="effect1_dropShadow_452_48" result="shape"/>
</filter>
</defs>
</svg>
