<svg width="112" height="94" viewBox="0 0 112 94" fill="none" xmlns="http://www.w3.org/2000/svg">
<path d="M105.542 45.9896C103.895 45.9896 102.316 46.5383 101.152 47.5151C99.9874 48.4918 99.3333 49.8166 99.3333 51.1979V80.2083C99.3333 81.0371 98.9409 81.832 98.2423 82.418C97.5437 83.0041 96.5963 83.3333 95.6083 83.3333H16.1417C15.1537 83.3333 14.2063 83.0041 13.5077 82.418C12.8091 81.832 12.4167 81.0371 12.4167 80.2083V13.5417C12.4167 12.7129 12.8091 11.918 13.5077 11.332C14.2063 10.7459 15.1537 10.4167 16.1417 10.4167H75.5554C77.202 10.4167 78.7811 9.86793 79.9454 8.89118C81.1097 7.91443 81.7638 6.58967 81.7638 5.20833C81.7638 3.827 81.1097 2.50224 79.9454 1.52549C78.7811 0.548733 77.202 0 75.5554 0H16.1417C11.8657 0.0137181 7.76946 1.44483 4.74585 3.98142C1.72224 6.51801 0.016352 9.95442 0 13.5417V80.2083C0.016352 83.7956 1.72224 87.232 4.74585 89.7686C7.76946 92.3052 11.8657 93.7363 16.1417 93.75H95.6083C99.8843 93.7363 103.981 92.3052 107.004 89.7686C110.028 87.232 111.734 83.7956 111.75 80.2083V51.1979C111.75 49.8166 111.096 48.4918 109.932 47.5151C108.767 46.5383 107.188 45.9896 105.542 45.9896Z" fill="#D012FF"/>
<path d="M47.9284 41.6666C46.7634 40.7876 45.2452 40.3107 43.6786 40.3316C42.1119 40.3524 40.6126 40.8694 39.4814 41.7789C38.3501 42.6884 37.6706 43.9231 37.5792 45.2353C37.4878 46.5475 37.9911 47.8402 38.9884 48.8541L52.7709 60.9895C53.3479 61.4973 54.0413 61.9021 54.8094 62.1796C55.5776 62.457 56.4046 62.6014 57.2409 62.6041C58.0727 62.6082 58.8971 62.472 59.665 62.2036C60.4328 61.9351 61.1286 61.54 61.7109 61.0416L103.803 24.5833C104.374 24.0908 104.824 23.5089 105.126 22.8707C105.429 22.2325 105.579 21.5505 105.567 20.8638C105.556 20.177 105.383 19.4989 105.059 18.8681C104.735 18.2373 104.266 17.6662 103.679 17.1874C103.092 16.7087 102.399 16.3316 101.638 16.0777C100.877 15.8238 100.064 15.6981 99.2456 15.7078C98.4269 15.7175 97.6186 15.8623 96.8667 16.1341C96.1148 16.4058 95.4341 16.7991 94.8634 17.2916L57.303 49.8958L47.9284 41.6666Z" fill="#D012FF"/>
</svg>
