<svg width="114" height="97" viewBox="0 0 114 97" fill="none" xmlns="http://www.w3.org/2000/svg">
<g filter="url(#filter0_ddi_723_2)">
<path d="M82 47C82 63.5685 68.5685 77 52 77C35.4315 77 22 63.5685 22 47C22 30.4315 35.4315 17 52 17C68.5685 17 82 30.4315 82 47Z" fill="#080808"/>
<path d="M81 47C81 63.0163 68.0163 76 52 76C35.9837 76 23 63.0163 23 47C23 30.9837 35.9837 18 52 18C68.0163 18 81 30.9837 81 47Z" stroke="#FFD3F3" stroke-width="2"/>
</g>
<g filter="url(#filter1_ddd_723_2)">
<path d="M31.2323 47.369C31.264 47.4452 31.3163 47.6081 31.3891 47.8574C31.4607 48.1024 31.5444 48.4055 31.6404 48.7667C31.7407 49.1266 31.8488 49.5294 31.9647 49.9749C32.0849 50.4192 32.2059 50.8823 32.3276 51.364C32.448 51.8414 32.5675 52.3238 32.686 52.8112C32.8077 53.293 32.9202 53.7513 33.0234 54.1862C33.1267 54.6211 33.2169 55.0194 33.294 55.3812C33.3699 55.7385 33.4266 56.0303 33.4642 56.2565C33.4718 56.2827 33.4657 56.3105 33.4458 56.3398C33.4289 56.3634 33.4144 56.403 33.4021 56.4586C33.3886 56.5097 33.3693 56.5412 33.3442 56.553C33.3192 56.5648 33.2973 56.5709 33.2784 56.5715C33.2596 56.5721 33.2464 56.5758 33.2389 56.5826C33.2315 56.5895 33.2378 56.6113 33.2581 56.6482C33.2745 56.672 33.2656 56.6982 33.2312 56.7268C33.1999 56.7498 33.168 56.7541 33.1353 56.7397C33.0925 56.7233 33.0419 56.7044 32.9834 56.683C32.9237 56.6572 32.8872 56.6462 32.874 56.6499C32.8464 56.6529 32.8409 56.6663 32.8573 56.6901C32.8737 56.7139 32.893 56.7392 32.9151 56.7661C32.9416 56.7918 32.9609 56.8172 32.9729 56.8422C32.9906 56.8703 32.9826 56.8915 32.9488 56.9058C32.8855 56.9331 32.8043 56.9394 32.7051 56.9247C32.6102 56.9088 32.5178 56.8851 32.4279 56.8536C32.3525 56.8228 32.2291 56.7415 32.0577 56.6099C31.8863 56.4782 31.6781 56.3096 31.4329 56.1041C31.1908 55.8929 30.9188 55.6523 30.6168 55.3823C30.3193 55.111 30.0065 54.8203 29.6786 54.5103C29.3507 54.2002 29.0146 53.8782 28.6702 53.5444C28.3259 53.2105 27.9887 52.877 27.6588 52.5438C27.3276 52.2062 27.0084 51.8771 26.7012 51.5565C26.3939 51.2359 26.1141 50.9359 25.8616 50.6567C25.8977 50.8454 25.9558 51.1012 26.0359 51.4243C26.1147 51.743 26.2044 52.0988 26.3049 52.4919C26.4085 52.8793 26.5186 53.2886 26.635 53.7198C26.7514 54.151 26.8659 54.5756 26.9784 54.9937C27.0954 55.4105 27.206 55.8054 27.3102 56.1785C27.4144 56.5516 27.5032 56.8722 27.5767 57.1403C27.6278 57.3152 27.6599 57.4412 27.6728 57.518C27.6888 57.5892 27.6963 57.6392 27.6952 57.6679C27.6985 57.6954 27.6977 57.7169 27.6927 57.7325C27.6909 57.7425 27.6998 57.7731 27.7195 57.8244C27.7604 57.9644 27.7893 58.0959 27.8063 58.219C27.8219 58.3376 27.801 58.4122 27.7434 58.4426C27.7134 58.47 27.6786 58.4727 27.6389 58.4507C27.6006 58.4331 27.5592 58.4377 27.5147 58.4644C27.5016 58.4681 27.4872 58.484 27.4717 58.512C27.4618 58.5432 27.4327 58.5656 27.3845 58.5792C27.345 58.5903 27.2916 58.5864 27.2244 58.5674C27.1571 58.5485 27.1013 58.4956 27.057 58.4087L26.9598 58.1733C26.9477 58.1483 26.936 58.1326 26.9247 58.1263C26.9177 58.1188 26.9073 58.1076 26.8935 58.0925C26.884 58.0763 26.8713 58.0491 26.8554 58.0109C26.8382 57.9684 26.8128 57.8975 26.779 57.7981C26.7713 57.7718 26.74 57.6481 26.6849 57.4269C26.6285 57.2013 26.5558 56.9117 26.4668 56.558C26.3821 56.2031 26.2834 55.8001 26.1707 55.3489C26.0623 54.8966 25.9495 54.4289 25.8322 53.9458C25.7193 53.4616 25.6048 52.9802 25.4888 52.5015C25.3772 52.0217 25.2758 51.5768 25.1846 51.1669C25.0978 50.7558 25.0241 50.3978 24.9635 50.0929C24.9017 49.7836 24.8633 49.5625 24.8481 49.4295C24.8109 49.3831 24.7787 49.3378 24.7514 49.2934C24.7286 49.2477 24.7115 49.2052 24.7 49.1658C24.6879 49.1408 24.685 49.1227 24.6912 49.1115C24.7018 49.099 24.7153 49.0881 24.7315 49.0788C24.7509 49.0639 24.7703 49.049 24.7897 49.034C24.809 49.0191 24.8259 48.9954 24.8401 48.963C24.8451 48.9474 24.8427 48.9149 24.833 48.8656C24.8265 48.8106 24.8342 48.7801 24.8561 48.7739C24.9175 48.7566 24.9641 48.7293 24.996 48.6919C25.0265 48.6502 25.0756 48.615 25.1432 48.5865C25.1215 48.5121 25.1272 48.4585 25.1603 48.4255C25.174 48.4074 25.1925 48.3975 25.2157 48.3957C25.2928 48.3834 25.3588 48.398 25.4136 48.4394C25.4715 48.4751 25.5178 48.5118 25.5525 48.5494C25.5898 48.5957 25.6188 48.6301 25.6396 48.6527C25.6605 48.6752 25.6889 48.7074 25.7249 48.7494C25.7696 48.7889 25.8589 48.875 25.9926 49.0078C26.1307 49.1393 26.3 49.3047 26.5006 49.5039C26.7012 49.703 26.9282 49.9279 27.1818 50.1784C27.4341 50.4246 27.6987 50.6886 27.9756 50.9704C28.2556 51.2466 28.5426 51.5303 28.8366 51.8216C29.1292 52.1084 29.4155 52.39 29.6956 52.6662C29.9756 52.9424 30.2424 53.2058 30.496 53.4563C30.7495 53.7069 30.9794 53.9333 31.1857 54.1356C31.3906 54.3335 31.5628 54.5005 31.7022 54.6364C31.8403 54.7679 31.9346 54.855 31.985 54.8976C32.1098 54.9998 32.1923 55.0547 32.2325 55.0623C32.2714 55.0655 32.3009 55.0122 32.3211 54.9024C32.3302 54.8525 32.3206 54.7463 32.2922 54.5839C32.2668 54.4158 32.2272 54.2069 32.1732 53.9569C32.1236 53.7058 32.06 53.423 31.9825 53.1087C31.9093 52.7932 31.8295 52.463 31.7431 52.118C31.6566 51.7731 31.5654 51.4201 31.4694 51.0589C31.3734 50.6977 31.2763 50.3487 31.1779 50.0118C31.0839 49.6737 30.9913 49.3566 30.9001 49.0603C30.8132 48.7629 30.73 48.5022 30.6504 48.2785C30.6103 48.1572 30.5761 48.0485 30.548 47.9522C30.5238 47.8691 30.5058 47.7913 30.4941 47.7189C30.4825 47.6464 30.4876 47.6071 30.5095 47.6009C30.5339 47.5704 30.5564 47.5498 30.577 47.5393C30.6008 47.5231 30.6199 47.5154 30.6343 47.516C30.6519 47.5111 30.6679 47.509 30.6823 47.5096C30.6967 47.5103 30.7077 47.5072 30.7152 47.5004C30.7227 47.4935 30.7252 47.4857 30.7226 47.477C30.72 47.4682 30.7169 47.4573 30.713 47.4442C30.7136 47.4298 30.7163 47.4148 30.7213 47.3992C30.7249 47.3793 30.7408 47.3606 30.769 47.3432C30.8003 47.3202 30.8247 47.3062 30.8422 47.3013C30.8629 47.2907 30.8804 47.2858 30.8948 47.2865C30.9093 47.2871 30.9215 47.2884 30.9316 47.2903C30.9416 47.2922 30.9541 47.2863 30.9691 47.2726C30.9991 47.2453 31.0232 47.2219 31.0413 47.2026C31.0581 47.1789 31.0759 47.1668 31.0947 47.1663C31.1136 47.1657 31.1325 47.1817 31.1515 47.2142C31.1736 47.2411 31.2005 47.2927 31.2323 47.369ZM39.4124 52.4368C39.4264 52.4849 39.4452 52.5412 39.4688 52.6056C39.4923 52.67 39.5162 52.7437 39.5405 52.8268C39.5712 52.9318 39.5941 53.0674 39.6094 53.2335C39.6234 53.3953 39.6202 53.5713 39.5998 53.7617C39.5839 53.9509 39.5438 54.1468 39.4795 54.3495C39.4153 54.5522 39.3196 54.7449 39.1925 54.9274C39.0654 55.11 38.9 55.2749 38.6961 55.4223C38.4979 55.5728 38.2541 55.6888 37.9646 55.7703C37.7058 55.8432 37.4257 55.8676 37.1243 55.8436C36.8286 55.8227 36.5389 55.741 36.2552 55.5984C35.9745 55.4501 35.7152 55.2367 35.4772 54.9582C35.2423 54.674 35.0597 54.3088 34.9294 53.8625C34.8476 53.5826 34.8023 53.2971 34.7933 53.0061C34.7886 52.7139 34.8104 52.4308 34.8586 52.1568C34.9112 51.8816 34.9892 51.6206 35.0928 51.3736C35.1994 51.1211 35.3216 50.8973 35.4593 50.7023C35.6001 50.5017 35.7549 50.3326 35.9237 50.1952C36.0968 50.0565 36.2755 49.9612 36.4597 49.9093C36.7799 49.8191 37.0578 49.7953 37.2934 49.8379C37.5333 49.8792 37.7364 49.9569 37.9027 50.0711C38.0689 50.1852 38.2011 50.3208 38.2992 50.4778C38.4004 50.6292 38.4707 50.7728 38.5103 50.9084C38.5487 51.0396 38.5598 51.1998 38.5438 51.3889C38.531 51.5725 38.4745 51.7612 38.3745 51.955C38.2731 52.1445 38.1215 52.3245 37.9197 52.495C37.7166 52.6611 37.4461 52.7917 37.1084 52.8868C36.9285 52.9374 36.7592 52.9591 36.6004 52.9517C36.4447 52.9387 36.3011 52.9105 36.1697 52.867C36.0371 52.8192 35.9185 52.7626 35.814 52.6974C35.7126 52.6265 35.6241 52.5591 35.5484 52.4952C35.5487 52.7886 35.6018 53.1169 35.7078 53.48C35.7806 53.7294 35.8815 53.9448 36.0105 54.1262C36.1425 54.3021 36.2926 54.4421 36.4607 54.5463C36.6288 54.6504 36.8114 54.715 37.0086 54.74C37.2058 54.7649 37.4096 54.7477 37.6202 54.6885C37.8834 54.6143 38.1009 54.5057 38.2728 54.3627C38.4434 54.2152 38.5812 54.0533 38.6864 53.8769C38.7959 53.6993 38.8804 53.5169 38.9397 53.3298C39.0021 53.1371 39.0536 52.964 39.0942 52.8105C39.1336 52.6526 39.169 52.5219 39.2005 52.4184C39.2364 52.3136 39.2834 52.2554 39.3417 52.2437C39.3681 52.2363 39.3876 52.2544 39.4004 52.2982C39.4068 52.32 39.411 52.3425 39.413 52.3656C39.415 52.3888 39.4148 52.4125 39.4124 52.4368ZM36.719 50.5535C36.6401 50.5757 36.5421 50.6223 36.4251 50.6931C36.3112 50.7583 36.1962 50.8522 36.0801 50.9749C35.9684 51.0963 35.8656 51.2483 35.7718 51.431C35.6767 51.6093 35.6106 51.822 35.5736 52.0691C35.626 52.0212 35.671 51.9801 35.7085 51.9459C35.7504 51.9104 35.7801 51.8902 35.7976 51.8853C35.8064 51.8828 35.8221 51.8879 35.8448 51.9004C35.9955 52.0426 36.1563 52.1299 36.3271 52.1623C36.5011 52.189 36.6824 52.1759 36.871 52.1227C37.0202 52.0807 37.1404 52.0209 37.2316 51.9431C37.3259 51.8597 37.3967 51.7688 37.4439 51.6703C37.4911 51.5718 37.5166 51.4722 37.5205 51.3717C37.5231 51.2668 37.511 51.1685 37.4842 51.0766C37.4267 50.8797 37.329 50.7321 37.1911 50.6336C37.0518 50.5308 36.8945 50.5041 36.719 50.5535ZM45.297 50.375C45.4312 50.8343 45.4839 51.2668 45.4552 51.6726C45.4309 52.0771 45.3402 52.4412 45.183 52.7647C45.0303 53.0871 44.823 53.3609 44.5612 53.5861C44.2994 53.8113 43.9996 53.9715 43.6618 54.0666C43.5215 54.1061 43.3628 54.1319 43.1859 54.1438C43.0103 54.1601 42.8283 54.1546 42.6399 54.1271C42.4514 54.0997 42.2604 54.047 42.0667 53.969C41.873 53.8909 41.6886 53.7795 41.5134 53.6348C41.3382 53.49 41.1782 53.3078 41.0333 53.0882C40.8929 52.8674 40.7789 52.5988 40.6913 52.2826C40.5866 51.9239 40.5353 51.5857 40.5374 51.2678C40.5383 50.9457 40.5729 50.6495 40.6412 50.3794C40.7126 50.1036 40.8111 49.8557 40.9367 49.6357C41.0624 49.4157 41.1963 49.2241 41.3386 49.0609C41.4796 48.8934 41.6229 48.7584 41.7686 48.6558C41.9143 48.5532 42.0451 48.4809 42.161 48.4388C42.2211 48.4171 42.2494 48.4162 42.2457 48.4362C42.2464 48.455 42.2368 48.479 42.2169 48.5082C42.197 48.5375 42.1792 48.5662 42.1637 48.5942C42.1525 48.6211 42.1651 48.6317 42.2015 48.6262C42.2347 48.6263 42.2614 48.6283 42.2815 48.6321C42.306 48.6346 42.3311 48.6394 42.3569 48.6464L42.3923 48.5725C42.4166 48.542 42.4419 48.523 42.4683 48.5156C42.499 48.5069 42.5266 48.5039 42.5511 48.5065C42.5743 48.5047 42.5925 48.5019 42.6056 48.4982C42.6188 48.4945 42.6237 48.4789 42.6204 48.4514C42.6152 48.4008 42.6229 48.3703 42.6435 48.3597C42.6673 48.3435 42.723 48.3231 42.8108 48.2984C42.8634 48.2836 42.9468 48.2767 43.061 48.2776C43.1797 48.2774 43.3134 48.2965 43.4624 48.3351C43.6157 48.3724 43.7767 48.4359 43.9453 48.5257C44.117 48.6099 44.2859 48.7328 44.4517 48.8944C44.6207 49.0504 44.7786 49.2498 44.9254 49.4925C45.0723 49.7352 45.1961 50.0294 45.297 50.375ZM42.3603 49.1212C42.2336 49.2563 42.1186 49.4236 42.0155 49.6231C41.9123 49.8226 41.8293 50.0424 41.7665 50.2826C41.7081 50.5216 41.6787 50.7784 41.6782 51.0531C41.6777 51.3279 41.7183 51.6052 41.8001 51.8852C41.8882 52.187 41.9944 52.453 42.1185 52.6832C42.2471 52.9121 42.3896 53.0992 42.5459 53.2446C42.701 53.3855 42.8672 53.4832 43.0445 53.5374C43.2248 53.586 43.4115 53.5832 43.6045 53.5288C43.7756 53.4806 43.9304 53.385 44.069 53.2418C44.212 53.0974 44.3212 52.9104 44.3966 52.6808C44.472 52.4513 44.5077 52.1832 44.5036 51.8767C44.5039 51.5688 44.4491 51.2268 44.3393 50.8506C44.2282 50.47 44.0845 50.1649 43.9082 49.9352C43.732 49.7055 43.5572 49.5298 43.384 49.4081C43.2139 49.2809 43.0623 49.2005 42.9291 49.167C42.7946 49.1291 42.7142 49.1139 42.6879 49.1213C42.6264 49.1386 42.5782 49.1522 42.5431 49.162C42.5124 49.1707 42.4514 49.1571 42.3603 49.1212ZM51.5368 51.3093C51.5521 51.3618 51.5496 51.4265 51.5293 51.5032C51.5121 51.5743 51.4684 51.6198 51.3982 51.6395C51.3587 51.6506 51.3248 51.6484 51.2965 51.6327C51.2682 51.617 51.243 51.6122 51.2211 51.6184C51.1904 51.627 51.1629 51.6466 51.1386 51.6771C51.1186 51.7064 51.0758 51.7303 51.01 51.7489C50.9222 51.7736 50.8365 51.7646 50.7528 51.7218C50.6723 51.6735 50.5982 51.6068 50.5306 51.5217C50.4617 51.4322 50.3997 51.3336 50.3446 51.2261C50.2926 51.1129 50.2519 51.006 50.2225 50.9054C50.165 50.7085 50.1064 50.4836 50.0468 50.2305C49.9902 49.9718 49.9324 49.7088 49.8733 49.4414C49.8173 49.1683 49.7576 48.8987 49.6941 48.6326C49.635 48.3651 49.5729 48.1199 49.5078 47.8968C49.4209 47.5993 49.3335 47.373 49.2455 47.2179C49.1574 47.0628 49.063 46.9994 48.9621 47.0278C48.8694 47.0681 48.795 47.179 48.7388 47.3606C48.6826 47.5421 48.637 47.768 48.602 48.0382C48.5657 48.3041 48.5411 48.6022 48.5284 48.9324C48.5143 49.2583 48.5051 49.5923 48.5005 49.9345C48.4991 50.271 48.5001 50.5998 48.5036 50.9207C48.5059 51.2373 48.5079 51.5207 48.5098 51.7711C48.5117 52.0215 48.5096 52.2257 48.5035 52.3836C48.4962 52.5372 48.4837 52.6165 48.4662 52.6214C48.4311 52.6313 48.4022 52.6299 48.3795 52.6174C48.3582 52.6092 48.3361 52.5988 48.3135 52.5863C48.2952 52.5725 48.2726 52.5599 48.2455 52.5486C48.2197 52.5417 48.1849 52.5444 48.1411 52.5567C48.1016 52.5678 48.0765 52.5796 48.0659 52.5921C48.0553 52.6045 48.0432 52.6198 48.0295 52.6379C48.0157 52.6559 47.997 52.673 47.9732 52.6892C47.9495 52.7054 47.9047 52.7227 47.8389 52.7412C47.7599 52.7635 47.6752 52.766 47.5848 52.7489C47.4987 52.7305 47.4435 52.6798 47.4193 52.5966C47.4039 52.5441 47.3814 52.4345 47.3517 52.2677C47.3207 52.0965 47.2817 51.8897 47.2346 51.6473C47.1907 51.3993 47.1391 51.125 47.0798 50.8245C47.0237 50.5184 46.9606 50.2048 46.8906 49.8836C46.8249 49.5612 46.7549 49.2401 46.6804 48.9202C46.606 48.6003 46.5273 48.2981 46.4443 48.0138C46.4034 47.8738 46.3635 47.7454 46.3246 47.6285C46.2845 47.5072 46.2485 47.3919 46.2165 47.2826C46.2089 47.2563 46.2182 47.2395 46.2445 47.2321C46.2971 47.2172 46.3398 47.2171 46.3725 47.2315C46.4083 47.2404 46.436 47.2539 46.4556 47.272C46.4751 47.2902 46.4881 47.3102 46.4945 47.3321C46.504 47.3484 46.5109 47.3559 46.5153 47.3547C46.5285 47.3509 46.5419 47.3401 46.5556 47.322C46.568 47.2996 46.5805 47.2771 46.5929 47.2547C46.6097 47.231 46.625 47.2101 46.6387 47.1921C46.6512 47.1696 46.664 47.1566 46.6771 47.1528L46.7429 47.1343C46.8087 47.1158 46.8522 47.0941 46.8734 47.0692C46.8934 47.0399 46.9045 47.0131 46.9069 46.9887C46.9124 46.9588 46.9148 46.9344 46.9141 46.9157C46.9121 46.8926 46.922 46.8779 46.944 46.8718C46.9571 46.8681 46.9779 46.8741 47.0062 46.8897C47.0376 46.8998 47.0713 46.9259 47.1073 46.9678C47.1464 47.0041 47.1856 47.057 47.2249 47.1264C47.2641 47.1959 47.2991 47.2831 47.3297 47.3881C47.3706 47.5281 47.4158 47.7071 47.4652 47.9251C47.519 48.142 47.5729 48.3753 47.6269 48.6253C47.684 48.8696 47.7424 49.1183 47.802 49.3713C47.8604 49.62 47.9167 49.8456 47.9711 50.048C47.9644 49.8463 47.9608 49.6225 47.9602 49.3765C47.9627 49.1249 47.9733 48.8686 47.992 48.6077C48.0152 48.3455 48.0468 48.088 48.087 47.8353C48.1258 47.5781 48.1811 47.3448 48.2528 47.1352C48.3246 46.9256 48.4131 46.7492 48.5184 46.6059C48.6225 46.4583 48.7491 46.3634 48.8982 46.3215C49.1351 46.2547 49.3409 46.2441 49.5156 46.2896C49.6947 46.3339 49.8505 46.4202 49.9829 46.5486C50.1153 46.677 50.2269 46.8397 50.3177 47.0367C50.4128 47.2324 50.4949 47.4484 50.5638 47.6846C50.6226 47.8858 50.6758 48.1005 50.7234 48.3285C50.7697 48.5522 50.8144 48.7787 50.8577 49.008C50.904 49.2316 50.9497 49.4531 50.9947 49.6724C51.0441 49.8905 51.0963 50.0936 51.1512 50.2817C51.2189 50.5135 51.2934 50.7198 51.3747 50.9005C51.4546 51.0768 51.5087 51.2131 51.5368 51.3093ZM57.8762 40.5621C57.8935 40.7514 57.8597 40.9526 57.7748 41.1659C57.693 41.3736 57.5867 41.5621 57.4557 41.7316C57.4402 41.7596 57.4034 41.796 57.3452 41.8408C57.2915 41.8843 57.2318 41.9319 57.1661 41.9835C57.1036 42.0296 57.0405 42.0734 56.9767 42.115C56.9129 42.1567 56.8619 42.1852 56.8237 42.2007C56.7911 42.2193 56.762 42.2252 56.7362 42.2182C56.7148 42.2101 56.6928 42.1997 56.6701 42.1871C56.6475 42.1746 56.6211 42.1654 56.5909 42.1597C56.5639 42.1484 56.5284 42.1489 56.4846 42.1613C56.4319 42.1761 56.3958 42.1744 56.3763 42.1563C56.3599 42.1325 56.353 42.0847 56.3558 42.0129C56.3582 41.9885 56.3646 41.9536 56.375 41.9081C56.3855 41.8625 56.4059 41.8023 56.4362 41.7275C56.4598 41.6782 56.4756 41.6265 56.4835 41.5722C56.4957 41.5166 56.4873 41.4716 56.4583 41.4372C56.4324 41.3972 56.3805 41.3739 56.3026 41.3674C56.2248 41.3609 56.1113 41.3787 55.9621 41.4207C55.8086 41.4639 55.6169 41.5392 55.3872 41.6465C55.1342 41.7556 54.8792 41.8985 54.6221 42.075C54.3695 42.2503 54.1279 42.439 53.8974 42.6413C53.6712 42.8422 53.4673 43.0464 53.2858 43.2538C53.1042 43.4611 52.9615 43.6552 52.8576 43.8359C52.7568 44.0111 52.7046 44.1655 52.7009 44.2991C52.6959 44.4283 52.7569 44.5153 52.8839 44.56C52.9951 44.5997 53.1521 44.617 53.3548 44.612C53.5562 44.6026 53.7855 44.5831 54.0426 44.5533C54.2985 44.5191 54.5732 44.4843 54.8667 44.449C55.159 44.4093 55.4516 44.379 55.7445 44.3581C56.0419 44.3359 56.3277 44.3311 56.602 44.3439C56.8807 44.3553 57.1345 44.3951 57.3632 44.4633C57.5261 44.5168 57.6657 44.5722 57.782 44.6294C57.8984 44.6866 57.9973 44.7487 58.0786 44.8157C58.1586 44.8784 58.2277 44.9442 58.2857 45.0131C58.3425 45.0776 58.3956 45.1455 58.4449 45.2168C58.4765 45.26 58.5232 45.306 58.5849 45.3549C58.6498 45.3982 58.7207 45.454 58.7976 45.5223C58.8745 45.5906 58.9509 45.6732 59.0267 45.7702C59.1012 45.8629 59.1661 45.9795 59.2214 46.1202C59.3233 46.404 59.3439 46.694 59.2833 46.9904C59.227 47.2856 59.1234 47.5728 58.9723 47.8521C58.8256 48.1301 58.6484 48.393 58.4407 48.6409C58.2317 48.8844 58.0253 49.0964 57.8217 49.2768C57.6449 49.4355 57.453 49.5913 57.246 49.7443C57.0391 49.8972 56.8224 50.0411 56.5959 50.1759C56.3681 50.3063 56.1321 50.4248 55.8879 50.5315C55.6494 50.6413 55.4073 50.7307 55.1616 50.7999C54.7536 50.9148 54.3532 50.966 53.9603 50.9536C53.573 50.9443 53.2095 50.8454 52.8696 50.6571C52.7028 50.5573 52.5711 50.4476 52.4745 50.328C52.3766 50.2041 52.3078 50.0743 52.2682 49.9387C52.221 49.7769 52.2079 49.6101 52.229 49.4385C52.2501 49.2668 52.2935 49.0984 52.3591 48.9331C52.4248 48.7679 52.5059 48.6148 52.6025 48.474C52.6978 48.3288 52.7973 48.2061 52.9009 48.1059C53.0439 47.9615 53.1947 47.8196 53.3534 47.6802C53.5152 47.5353 53.6802 47.4012 53.8484 47.2781C54.0153 47.1506 54.1861 47.0363 54.3607 46.935C54.5352 46.8338 54.7083 46.7519 54.88 46.6894C54.952 46.6596 55.0438 46.6243 55.1553 46.5834C55.2668 46.5426 55.373 46.5079 55.4738 46.4795C55.5396 46.461 55.5996 46.463 55.6537 46.4857C55.7078 46.5083 55.7342 46.534 55.7331 46.5627C55.7253 46.617 55.6928 46.6522 55.6358 46.6683C55.5831 46.6831 55.5221 46.7098 55.4526 46.7482C55.3757 46.7936 55.2968 46.8324 55.216 46.8646C55.1352 46.8968 55.0651 46.9331 55.0057 46.9735C54.5388 47.2281 54.1576 47.4917 53.8622 47.7642C53.5711 48.0356 53.3487 48.2899 53.1949 48.5273C53.0455 48.7635 52.9571 48.9731 52.9298 49.1559C52.9012 49.3344 52.9144 49.4609 52.9694 49.5353C53.0477 49.6411 53.1557 49.7101 53.2933 49.7424C53.4309 49.7747 53.5788 49.7851 53.7368 49.7737C53.8937 49.758 54.0495 49.7307 54.2043 49.6918C54.3591 49.653 54.49 49.6137 54.5972 49.5741C54.8478 49.4893 55.1198 49.3724 55.4134 49.2235C55.7114 49.0733 56.0058 48.9028 56.2966 48.712C56.5919 48.52 56.8732 48.313 57.1407 48.0909C57.4069 47.8644 57.6348 47.6369 57.8244 47.4083C58.0127 47.1754 58.1518 46.9445 58.2417 46.7156C58.3302 46.4824 58.3438 46.2608 58.2825 46.0508C58.2621 45.9808 58.2313 45.9161 58.1902 45.8566C58.1523 45.7916 58.1049 45.7268 58.048 45.6623C57.9452 45.554 57.7889 45.482 57.5791 45.4464C57.368 45.4064 57.1242 45.3922 56.8475 45.4039C56.5739 45.4099 56.2787 45.4315 55.962 45.4686C55.6484 45.5001 55.3369 45.531 55.0277 45.5612C54.7228 45.5903 54.4292 45.609 54.1469 45.6175C53.8645 45.626 53.6194 45.6075 53.4114 45.5619C53.1777 45.5093 52.9972 45.4442 52.8701 45.3663C52.746 45.2829 52.6538 45.1621 52.5934 45.004C52.5839 44.9877 52.5618 44.9608 52.527 44.9232C52.4923 44.8857 52.4526 44.8471 52.4079 44.8077C52.3675 44.7669 52.3277 44.7284 52.2887 44.6921C52.2496 44.6558 52.2196 44.6263 52.1988 44.6038C52.0915 44.4967 52.0162 44.3688 51.9728 44.22C51.9242 44.0538 51.9117 43.8727 51.9352 43.6767C51.9631 43.4795 52.0155 43.3014 52.0925 43.1424C52.2328 42.8425 52.444 42.5416 52.7262 42.2396C53.0127 41.9364 53.3376 41.6508 53.7008 41.3828C54.0641 41.1148 54.4472 40.8744 54.8503 40.6615C55.2565 40.4429 55.6507 40.2728 56.0329 40.1509C56.1895 40.1021 56.3704 40.063 56.5754 40.0336C56.7805 40.0043 56.9766 40.0012 57.1637 40.0242C57.354 40.0417 57.5161 40.0931 57.6502 40.1784C57.7831 40.2593 57.8584 40.3873 57.8762 40.5621ZM64.1552 43.2893C64.1818 43.348 64.2089 43.4162 64.2362 43.4937C64.2623 43.5668 64.2875 43.6449 64.3118 43.7281C64.3731 43.938 64.4359 44.1855 64.5001 44.4704C64.5643 44.7553 64.6394 45.094 64.7255 45.4863C64.7602 45.6375 64.8091 45.8297 64.8725 46.0628C64.9345 46.2915 65.0013 46.5283 65.0728 46.7733C65.1341 46.9833 65.1957 47.1861 65.2576 47.3817C65.3238 47.5761 65.3852 47.7458 65.4418 47.8909C65.4698 47.954 65.4646 47.9933 65.4264 48.0088C65.3882 48.0243 65.3431 48.0323 65.291 48.0328C65.2665 48.0302 65.2468 48.0357 65.2318 48.0494C65.2168 48.0631 65.2024 48.079 65.1887 48.0971C65.1794 48.1139 65.1666 48.127 65.1503 48.1363C65.1397 48.1487 65.1181 48.1477 65.0854 48.1333C65.0583 48.122 65.0134 48.1062 64.9505 48.086C64.8876 48.0659 64.8191 48.0425 64.7449 48.0161C64.6764 47.9928 64.6088 47.9645 64.5421 47.9312C64.4754 47.8979 64.4232 47.8652 64.3854 47.8333C64.3411 47.7795 64.2795 47.6335 64.2005 47.3953C64.1215 47.1572 64.0321 46.8675 63.9325 46.5263L63.6739 45.6404C63.622 45.4467 63.5752 45.254 63.5335 45.0621C63.4917 44.8703 63.4541 44.6845 63.4205 44.5045C63.387 44.3246 63.3544 44.1562 63.3229 43.9994C63.29 43.8382 63.2551 43.6942 63.2181 43.5673C63.1593 43.3661 63.0867 43.2232 63.0003 43.1387C62.982 43.1249 62.9458 43.1469 62.8915 43.2048C62.8372 43.2627 62.7759 43.3699 62.7076 43.5264C62.6438 43.6817 62.5799 43.8938 62.516 44.1627C62.4565 44.4304 62.408 44.7683 62.3706 45.1766C62.3375 45.5836 62.3224 46.0684 62.3252 46.6309C62.3325 47.1923 62.3731 47.8436 62.4472 48.585C62.4519 48.65 62.4465 48.6965 62.4309 48.7245C62.421 48.7557 62.3898 48.7787 62.3371 48.7935C62.3021 48.8034 62.263 48.7836 62.2201 48.7342C62.1829 48.6878 62.1416 48.6521 62.0963 48.627C62.0129 48.6505 61.9336 48.6634 61.8583 48.6656C61.7861 48.6623 61.7307 48.6187 61.692 48.5349C61.683 48.5043 61.6659 48.4783 61.6407 48.457C61.6199 48.4345 61.594 48.411 61.5632 48.3865C61.5354 48.3565 61.5076 48.3264 61.4799 48.2964C61.4552 48.2607 61.4352 48.2166 61.4199 48.1641C61.3436 47.8542 61.2575 47.5186 61.1616 47.1575C61.0643 46.7919 60.9652 46.4198 60.8641 46.0411C60.7661 45.6568 60.6659 45.2731 60.5636 44.89C60.4612 44.507 60.3662 44.1408 60.2784 43.7915C60.1894 43.4378 60.1058 43.111 60.0278 42.8111C59.9528 42.5055 59.8921 42.2409 59.8458 42.0172C59.7081 41.3506 59.6113 40.8239 59.5554 40.4373C59.4982 40.0462 59.4672 39.8182 59.4625 39.7533C59.4629 39.7058 59.4664 39.6693 59.4732 39.6437C59.48 39.6182 59.4865 39.5998 59.4927 39.5885C59.5033 39.5761 59.5102 39.5671 59.5133 39.5614C59.5208 39.5546 59.5242 39.5418 59.5234 39.5231C59.5271 39.5031 59.5399 39.49 59.5618 39.4839C59.5869 39.4721 59.6154 39.464 59.6474 39.4598C59.6781 39.4511 59.7066 39.4431 59.7329 39.4357C59.758 39.4239 59.7767 39.4068 59.7891 39.3843C59.8166 39.3482 59.8387 39.3183 59.8555 39.2946C59.8767 39.2697 59.918 39.2486 59.9795 39.2313C60.0515 39.2016 60.1091 39.1877 60.1525 39.1897C60.1945 39.1873 60.2307 39.2221 60.2612 39.294C60.314 39.4259 60.3701 39.6019 60.4296 39.8218C60.4891 40.0418 60.5484 40.2855 60.6075 40.5529C60.6666 40.8203 60.7279 41.1037 60.7916 41.4029C60.8539 41.6978 60.9128 41.989 60.9683 42.2764C61.0281 42.5625 61.0841 42.8355 61.1362 43.0955C61.1915 43.3497 61.2409 43.5678 61.2845 43.7496C61.3051 43.8527 61.3343 43.9771 61.3721 44.1227C61.413 44.2627 61.4577 44.4158 61.5062 44.582C61.5535 44.7439 61.6033 44.9145 61.6556 45.0938C61.7067 45.2688 61.755 45.4422 61.8004 45.6141C61.8138 45.1558 61.8541 44.7492 61.9213 44.3941C61.9873 44.0346 62.0686 43.7277 62.1652 43.4733C62.2618 43.2188 62.3665 43.0165 62.4793 42.8664C62.5965 42.715 62.7096 42.6145 62.8185 42.5649C62.8436 42.5531 62.8916 42.5467 62.9625 42.5457C63.0378 42.5434 63.1159 42.5427 63.1969 42.5436C63.2778 42.5445 63.3528 42.5494 63.4219 42.5583C63.4897 42.5629 63.5293 42.5683 63.5406 42.5746C63.5645 42.5916 63.5998 42.6148 63.6464 42.6443C63.6917 42.6694 63.7409 42.7076 63.7938 42.759C63.8512 42.8091 63.9093 42.878 63.9681 42.9656C64.0313 43.0519 64.0936 43.1598 64.1552 43.2893ZM70.9044 43.1641C71.0385 43.6234 71.0913 44.056 71.0626 44.4617C71.0383 44.8662 70.9476 45.2303 70.7904 45.5539C70.6377 45.8762 70.4304 46.15 70.1686 46.3752C69.9068 46.6004 69.607 46.7606 69.2692 46.8557C69.1289 46.8952 68.9702 46.921 68.7933 46.9329C68.6177 46.9492 68.4356 46.9437 68.2472 46.9162C68.0588 46.8888 67.8678 46.8361 67.6741 46.7581C67.4804 46.6801 67.296 46.5687 67.1208 46.4239C66.9456 46.2791 66.7855 46.0969 66.6407 45.8773C66.5003 45.6565 66.3863 45.388 66.2987 45.0717C66.1939 44.713 66.1426 44.3748 66.1448 44.057C66.1457 43.7348 66.1803 43.4386 66.2485 43.1685C66.3199 42.8927 66.4185 42.6448 66.5441 42.4248C66.6698 42.2048 66.8037 42.0132 66.946 41.85C67.087 41.6825 67.2303 41.5475 67.376 41.4449C67.5217 41.3423 67.6525 41.27 67.7684 41.2279C67.8285 41.2062 67.8567 41.2054 67.8531 41.2253C67.8538 41.2441 67.8442 41.2681 67.8243 41.2974C67.8043 41.3266 67.7866 41.3553 67.771 41.3834C67.7599 41.4102 67.7725 41.4208 67.8089 41.4153C67.8421 41.4154 67.8688 41.4174 67.8889 41.4212C67.9134 41.4238 67.9385 41.4285 67.9643 41.4355L67.9997 41.3616C68.024 41.3311 68.0493 41.3121 68.0756 41.3047C68.1064 41.296 68.1339 41.293 68.1584 41.2956C68.1816 41.2938 68.1998 41.291 68.213 41.2873C68.2262 41.2836 68.2311 41.268 68.2278 41.2405C68.2225 41.1899 68.2302 41.1594 68.2509 41.1488C68.2747 41.1327 68.3304 41.1122 68.4181 41.0875C68.4708 41.0727 68.5542 41.0658 68.6684 41.0668C68.787 41.0665 68.9208 41.0856 69.0697 41.1242C69.223 41.1615 69.384 41.225 69.5527 41.3149C69.7244 41.3991 69.8932 41.5219 70.0591 41.6836C70.2281 41.8395 70.386 42.0389 70.5328 42.2816C70.6796 42.5243 70.8035 42.8185 70.9044 43.1641ZM67.9676 41.9103C67.8409 42.0454 67.726 42.2127 67.6228 42.4122C67.5197 42.6117 67.4367 42.8315 67.3739 43.0717C67.3155 43.3107 67.286 43.5675 67.2856 43.8423C67.2851 44.117 67.3257 44.3943 67.4075 44.6743C67.4956 44.9762 67.6017 45.2422 67.7259 45.4723C67.8545 45.7012 67.9969 45.8884 68.1533 46.0337C68.3084 46.1747 68.4746 46.2723 68.6518 46.3265C68.8322 46.3751 69.0189 46.3723 69.2119 46.3179C69.383 46.2698 69.5378 46.1741 69.6764 46.0309C69.8194 45.8865 69.9286 45.6995 70.004 45.47C70.0794 45.2404 70.115 44.9724 70.111 44.6658C70.1113 44.3579 70.0565 44.0159 69.9467 43.6397C69.8355 43.2591 69.6918 42.954 69.5156 42.7243C69.3393 42.4946 69.1646 42.3189 68.9914 42.1973C68.8213 42.07 68.6697 41.9896 68.5364 41.9561C68.402 41.9182 68.3216 41.903 68.2952 41.9104C68.2338 41.9277 68.1856 41.9413 68.1505 41.9512C68.1198 41.9598 68.0588 41.9462 67.9676 41.9103ZM73.0311 39.5968C73.0313 39.6299 73.0426 39.693 73.065 39.7861C73.0875 39.8792 73.1141 39.9948 73.1449 40.1329C73.3182 40.0273 73.4991 39.9313 73.6876 39.8451C73.876 39.7589 74.0733 39.6868 74.2795 39.6287C74.5076 39.5645 74.7434 39.5265 74.9868 39.5148C75.229 39.4987 75.4666 39.5241 75.6998 39.591C75.8802 39.6396 76.0524 39.7497 76.2164 39.9213C76.3848 40.0916 76.538 40.2829 76.6759 40.4949C76.755 40.6194 76.8385 40.7593 76.9265 40.9144C77.0133 41.0651 77.0854 41.2389 77.1429 41.4358C77.1914 41.602 77.2199 41.781 77.2284 41.9727C77.2413 42.1632 77.2232 42.3695 77.1741 42.5916C77.1238 42.8094 77.0381 43.0442 76.917 43.2961C76.7946 43.5436 76.6224 43.8075 76.4004 44.0877C76.1859 44.3612 75.9865 44.5807 75.8022 44.7462C75.6211 44.9061 75.4616 45.0267 75.324 45.1081C75.1863 45.1895 75.0752 45.2397 74.9906 45.2588C74.9116 45.281 74.8643 45.2896 74.8486 45.2846C74.8014 45.2695 74.7472 45.2303 74.6861 45.167C74.6261 45.1081 74.5489 45.047 74.4545 44.9837C74.4249 44.9636 74.3975 44.9429 74.3723 44.9216C74.3458 44.8959 74.3158 44.8665 74.2824 44.8333C74.3919 45.257 74.501 45.6713 74.6097 46.0762C74.7228 46.4799 74.8305 46.8567 74.9327 47.2067C74.9966 47.4254 75.0581 47.6282 75.1175 47.8151C75.1781 48.0064 75.2351 48.1773 75.2886 48.3279C75.3052 48.3848 75.3233 48.4389 75.343 48.4901C75.3684 48.5445 75.3853 48.5942 75.3937 48.6392C75.4065 48.683 75.4079 48.7204 75.398 48.7516C75.3882 48.7828 75.3591 48.8052 75.3108 48.8188C75.2231 48.8435 75.1609 48.8823 75.1241 48.9353C75.093 48.9914 75.0595 49.0718 75.0237 49.1766C75.0001 49.2259 74.9711 49.2648 74.9367 49.2934C74.9036 49.3264 74.8619 49.3381 74.8117 49.3286C74.7671 49.3222 74.7133 49.2924 74.6503 49.2391C74.5929 49.189 74.5281 49.1055 74.456 48.9885C74.4275 48.9397 74.3939 48.8734 74.3552 48.7896C74.3222 48.709 74.2821 48.6043 74.235 48.4755C74.1936 48.3499 74.1438 48.1958 74.0858 48.0133C74.0334 47.8339 73.9708 47.6196 73.898 47.3702L73.2614 45.0924C73.1029 44.5168 72.9619 43.9529 72.8386 43.4006C72.7153 42.8482 72.6082 42.3269 72.5172 41.8364C72.4203 41.9111 72.329 41.9723 72.2433 42.0201C72.1575 42.0679 72.1018 42.0883 72.076 42.0814C72.0271 42.0763 71.9928 42.0646 71.9732 42.0464C71.9537 42.0283 71.9392 42.011 71.9297 41.9948C71.9189 41.9741 71.9072 41.9585 71.8946 41.9478C71.8851 41.9316 71.8644 41.9256 71.8324 41.9299C71.8004 41.9341 71.7703 41.9284 71.7419 41.9127C71.7136 41.897 71.6919 41.8795 71.6767 41.8601C71.6659 41.8394 71.6624 41.8191 71.666 41.7992C71.6728 41.7736 71.6931 41.7537 71.7269 41.7394C71.7564 41.7264 71.7576 41.7142 71.7305 41.7029C71.7022 41.6872 71.6726 41.6671 71.6417 41.6427C71.614 41.6126 71.5974 41.5723 71.5922 41.5217C71.5856 41.4667 71.6232 41.3922 71.7049 41.2982C71.7448 41.2396 71.8209 41.159 71.9334 41.0563C72.0445 40.9493 72.1801 40.8283 72.3401 40.6933C72.2887 40.3385 72.2558 40.0471 72.2415 39.8191C72.2303 39.5856 72.2374 39.4392 72.2628 39.38C72.2784 39.3519 72.288 39.3279 72.2916 39.3079C72.2953 39.288 72.2996 39.2702 72.3045 39.2546C72.3095 39.239 72.3173 39.225 72.3279 39.2125C72.3385 39.2001 72.36 39.1845 72.3926 39.1659C72.422 39.1529 72.4502 39.152 72.4773 39.1633C72.5043 39.1746 72.5311 39.1932 72.5576 39.2188C72.5872 39.2389 72.6168 39.259 72.6464 39.279C72.676 39.2991 72.7068 39.307 72.7387 39.3027C72.8027 39.2942 72.8605 39.3134 72.9122 39.3604C72.9671 39.4018 73.0067 39.4806 73.0311 39.5968ZM74.6681 40.5206C74.4707 40.5762 74.2665 40.6574 74.0556 40.7641C73.8446 40.8709 73.6179 41.0128 73.3753 41.19L74.0884 44.0713C74.1317 44.0733 74.1781 44.0697 74.2276 44.0605C74.2759 44.0469 74.3307 44.0314 74.3921 44.0141C74.5369 43.9734 74.6979 43.9067 74.875 43.8143C75.0565 43.7205 75.2345 43.6065 75.4089 43.4722C75.582 43.3335 75.7485 43.1801 75.9083 43.012C76.0668 42.8395 76.1983 42.6557 76.3027 42.4606C76.4116 42.2643 76.4846 42.0591 76.5218 41.845C76.559 41.631 76.5472 41.4118 76.4864 41.1874C76.4525 41.055 76.3841 40.9346 76.2812 40.8262C76.1815 40.7123 76.0527 40.6207 75.8948 40.5515C75.7414 40.4811 75.5614 40.4419 75.3548 40.4338C75.1471 40.4212 74.9181 40.4502 74.6681 40.5206Z" fill="#FFD3F3"/>
</g>
<defs>
<filter id="filter0_ddi_723_2" x="12" y="7" width="80" height="80" filterUnits="userSpaceOnUse" color-interpolation-filters="sRGB">
<feFlood flood-opacity="0" result="BackgroundImageFix"/>
<feColorMatrix in="SourceAlpha" type="matrix" values="0 0 0 0 0 0 0 0 0 0 0 0 0 0 0 0 0 0 127 0" result="hardAlpha"/>
<feOffset/>
<feGaussianBlur stdDeviation="5"/>
<feComposite in2="hardAlpha" operator="out"/>
<feColorMatrix type="matrix" values="0 0 0 0 1 0 0 0 0 0 0 0 0 0 0.721569 0 0 0 1 0"/>
<feBlend mode="normal" in2="BackgroundImageFix" result="effect1_dropShadow_723_2"/>
<feColorMatrix in="SourceAlpha" type="matrix" values="0 0 0 0 0 0 0 0 0 0 0 0 0 0 0 0 0 0 127 0" result="hardAlpha"/>
<feOffset/>
<feGaussianBlur stdDeviation="5"/>
<feComposite in2="hardAlpha" operator="out"/>
<feColorMatrix type="matrix" values="0 0 0 0 1 0 0 0 0 0 0 0 0 0 0.721569 0 0 0 1 0"/>
<feBlend mode="normal" in2="effect1_dropShadow_723_2" result="effect2_dropShadow_723_2"/>
<feBlend mode="normal" in="SourceGraphic" in2="effect2_dropShadow_723_2" result="shape"/>
<feColorMatrix in="SourceAlpha" type="matrix" values="0 0 0 0 0 0 0 0 0 0 0 0 0 0 0 0 0 0 127 0" result="hardAlpha"/>
<feOffset/>
<feGaussianBlur stdDeviation="10"/>
<feComposite in2="hardAlpha" operator="arithmetic" k2="-1" k3="1"/>
<feColorMatrix type="matrix" values="0 0 0 0 1 0 0 0 0 0 0 0 0 0 0.721569 0 0 0 1 0"/>
<feBlend mode="normal" in2="shape" result="effect3_innerShadow_723_2"/>
</filter>
<filter id="filter1_ddd_723_2" x="-9.87854" y="0.348877" width="122.983" height="96.1541" filterUnits="userSpaceOnUse" color-interpolation-filters="sRGB">
<feFlood flood-opacity="0" result="BackgroundImageFix"/>
<feColorMatrix in="SourceAlpha" type="matrix" values="0 0 0 0 0 0 0 0 0 0 0 0 0 0 0 0 0 0 127 0" result="hardAlpha"/>
<feOffset/>
<feGaussianBlur stdDeviation="10"/>
<feComposite in2="hardAlpha" operator="out"/>
<feColorMatrix type="matrix" values="0 0 0 0 1 0 0 0 0 0 0 0 0 0 0.721569 0 0 0 1 0"/>
<feBlend mode="normal" in2="BackgroundImageFix" result="effect1_dropShadow_723_2"/>
<feColorMatrix in="SourceAlpha" type="matrix" values="0 0 0 0 0 0 0 0 0 0 0 0 0 0 0 0 0 0 127 0" result="hardAlpha"/>
<feOffset/>
<feGaussianBlur stdDeviation="7.5"/>
<feComposite in2="hardAlpha" operator="out"/>
<feColorMatrix type="matrix" values="0 0 0 0 1 0 0 0 0 0 0 0 0 0 0.721569 0 0 0 1 0"/>
<feBlend mode="normal" in2="effect1_dropShadow_723_2" result="effect2_dropShadow_723_2"/>
<feColorMatrix in="SourceAlpha" type="matrix" values="0 0 0 0 0 0 0 0 0 0 0 0 0 0 0 0 0 0 127 0" result="hardAlpha"/>
<feOffset/>
<feGaussianBlur stdDeviation="17"/>
<feComposite in2="hardAlpha" operator="out"/>
<feColorMatrix type="matrix" values="0 0 0 0 1 0 0 0 0 0 0 0 0 0 0.721569 0 0 0 1 0"/>
<feBlend mode="normal" in2="effect2_dropShadow_723_2" result="effect3_dropShadow_723_2"/>
<feBlend mode="normal" in="SourceGraphic" in2="effect3_dropShadow_723_2" result="shape"/>
</filter>
</defs>
</svg>
