<svg width="32" height="29" viewBox="0 0 32 29" fill="none" xmlns="http://www.w3.org/2000/svg">
<path d="M15.846 28.7797C24.5975 28.7797 31.692 22.3371 31.692 14.3898C31.692 6.44255 24.5975 0 15.846 0C7.0945 0 0 6.44255 0 14.3898C0 22.3371 7.0945 28.7797 15.846 28.7797Z" fill="#29B6F6"/>
<path d="M23.7313 7.91352L20.7634 21.6745C20.7634 21.6745 20.6358 22.3034 19.777 22.3034C19.3206 22.3034 19.0853 22.1062 19.0853 22.1062L12.6566 17.2619L9.51112 15.8222L5.47435 14.8473C5.47435 14.8473 4.75574 14.6588 4.75574 14.1191C4.75574 13.6695 5.49495 13.455 5.49495 13.455L22.3836 7.36239C22.3836 7.36239 22.8994 7.19331 23.2757 7.19403C23.5071 7.19403 23.7709 7.28397 23.7709 7.55378C23.7709 7.73365 23.7313 7.91352 23.7313 7.91352Z" fill="white"/>
<path d="M15.0575 19.0632L12.3431 21.4908C12.3431 21.4908 12.225 21.5735 12.0674 21.5771C12.0127 21.5785 11.9541 21.5706 11.8939 21.5462L12.6576 17.2544L15.0575 19.0632Z" fill="#B0BEC5"/>
<path d="M20.5182 10.211C20.3843 10.0528 20.1371 10.024 19.9628 10.1441L9.50757 15.826C9.50757 15.826 11.1762 20.0652 11.4305 20.7991C11.6856 21.5337 11.89 21.5509 11.89 21.5509L12.6538 17.2592L20.4437 10.7147C20.618 10.5945 20.6505 10.3693 20.5182 10.211Z" fill="#CFD8DC"/>
</svg>
