<svg width="88" height="71" viewBox="0 0 88 71" fill="none" xmlns="http://www.w3.org/2000/svg">
<path d="M50.5267 45.2625L72.5267 63.0125L80.2633 56.6225L58.2633 38.8725L50.5267 45.2625ZM64.1667 29.8792C62.7367 29.8792 61.1967 29.7312 59.9867 29.3171L18.2233 62.8646L10.4867 56.6225L37.6567 34.7308L31.1667 29.465L28.5267 31.5358L23.21 27.3646V35.8254L20.6433 37.8962L7.73666 27.3646L10.3033 25.2937H20.6067L15.4733 21.1225L28.5267 10.5908C32.8167 7.12956 39.71 7.12956 44 10.5908L36.2633 16.9808L41.4333 21.1225L38.83 23.2229L45.3933 28.4887L52.0667 22.9271C51.5533 21.9508 51.3333 20.7083 51.3333 19.6137C51.3333 13.7858 57.0533 9.20039 64.1667 9.20039C66.33 9.20039 68.2367 9.61456 69.96 10.4429L60.17 18.3416L65.67 22.7791L75.46 14.8804C76.4867 16.2708 77 17.75 77 19.6137C77 25.2937 71.3167 29.8792 64.1667 29.8792Z" fill="#BE72CA"/>
</svg>
