<svg width="88" height="84" viewBox="0 0 88 84" fill="none" xmlns="http://www.w3.org/2000/svg">
<path d="M88 46.0553L72.2079 29.0357H57.5743V22.303H40.1163C36.7599 15.4546 29.4734 10.6981 21.0439 10.6981C9.4406 10.6981 0 19.7096 0 30.7856C0 38.4752 4.55122 45.1685 11.2166 48.5432V64.4029H19.221C19.4354 69.3442 23.712 73.3016 28.9403 73.3016C34.1686 73.3016 38.4452 69.3442 38.6597 64.4029H60.5568C60.7712 69.3442 65.048 73.3016 70.2763 73.3016C75.5044 73.3016 79.7812 69.3442 79.9956 64.4029H88V46.0553ZM3.66673 30.7856C3.66673 21.639 11.4619 14.198 21.044 14.198C30.626 14.198 38.4213 21.639 38.4213 30.7856C38.4213 39.932 30.626 47.373 21.044 47.373C11.4617 47.373 3.66673 39.932 3.66673 30.7856ZM28.9403 69.8017C25.5969 69.8017 22.8773 67.2058 22.8773 64.0143C22.8773 60.8228 25.5969 58.2269 28.9403 58.2269C32.2838 58.2269 35.0033 60.8228 35.0033 64.0143C35.0033 67.2058 32.2838 69.8017 28.9403 69.8017ZM53.9077 60.903H38.1065C36.7632 57.3078 33.1622 54.727 28.9403 54.727C24.7185 54.727 21.1175 57.308 19.7741 60.903H14.8831V49.994C16.8326 50.5649 18.9011 50.8731 21.0439 50.8731C32.6473 50.8731 42.0877 41.8616 42.0877 30.7858C42.0877 29.0665 41.8598 27.397 41.4322 25.8032H53.9075V60.903H53.9077ZM70.2763 69.8017C66.9326 69.8017 64.2131 67.2058 64.2131 64.0143C64.2131 60.8228 66.9326 58.2269 70.2763 58.2269C73.6197 58.2269 76.3393 60.8228 76.3393 64.0143C76.3393 67.2058 73.6197 69.8017 70.2763 69.8017ZM84.3333 60.903H79.4425C78.0991 57.3078 74.4979 54.727 70.2763 54.727C66.0544 54.727 62.4532 57.308 61.1099 60.903H57.5744V32.5357H70.5573L84.3333 47.3833V60.903Z" fill="#BE72CA"/>
<path d="M29.2679 33.3328L22.8773 29.7798V18.0947H19.2106V31.7914L27.422 36.3577L29.2679 33.3328Z" fill="#BE72CA"/>
</svg>
