<svg width="79" height="71" viewBox="0 0 79 71" fill="none" xmlns="http://www.w3.org/2000/svg">
<path d="M76.5302 13.0432C76.1217 12.2727 75.3214 11.7283 74.3842 11.5845C73.4297 11.4356 72.4924 11.7128 71.8209 12.3163L57.6904 25.0182L51.1751 25.0027L51.1578 19.1499L65.2942 6.45072C65.9657 5.8472 66.2686 4.98938 66.1085 4.14708C65.9485 3.30478 65.3428 2.58607 64.4854 2.2187C61.1051 0.767881 57.3217 0 53.5496 0C46.7572 0 40.3736 2.37543 35.5727 6.68976C29.0117 12.5861 26.5772 21.2508 29.1232 29.176L3.50827 52.199C-1.16942 56.4029 -1.16942 63.2418 3.50827 67.4459L3.94836 67.8414C6.21464 69.8776 9.2265 71 12.4297 71C15.5902 71 18.682 69.8495 20.9137 67.8438L46.5345 44.8234C48.8149 45.4141 51.178 45.7146 53.5783 45.7146C60.3736 45.7146 66.7572 43.3392 71.5552 39.0273C79.159 32.1936 81.1593 21.7518 76.5302 13.0432ZM67.4174 35.3086C63.7255 38.6265 58.8105 40.4549 53.5783 40.4549C51.2321 40.4549 48.9404 40.0852 46.7631 39.3533C45.683 38.9965 44.4827 39.23 43.6713 39.9595L16.7762 64.1254C14.476 66.1926 10.3896 66.1952 8.08648 64.1227L7.64639 63.7272C5.25165 61.5751 5.25165 58.0696 7.64639 55.9177L34.536 31.7518C35.3474 31.025 35.6104 29.9387 35.2075 28.9733C32.5442 22.5504 34.3104 15.2621 39.7111 10.4085C43.4059 7.0879 48.3209 5.25945 53.5502 5.25945C54.9989 5.25945 56.4506 5.40593 57.8621 5.69099L46.1606 16.2046C45.609 16.7003 45.3006 17.3707 45.3032 18.0717L45.3319 27.6353C45.3372 29.0835 46.6402 30.2392 48.2519 30.2392H58.8933H58.8991C59.6763 30.2392 60.4193 29.9823 60.9679 29.4892L72.6695 18.9806C74.127 24.7718 72.2294 30.984 67.4174 35.3086ZM15.5472 59.654C15.5472 61.1075 14.2384 62.2838 12.6211 62.2838C11.0038 62.2838 9.69497 61.1075 9.69497 59.654C9.69497 58.2006 11.0038 57.0243 12.6211 57.0243C14.2384 57.0243 15.5472 58.2006 15.5472 59.654Z" fill="#BE72CA"/>
</svg>
