<svg width="124" height="112" viewBox="0 0 124 112" fill="none" xmlns="http://www.w3.org/2000/svg">
<path d="M89.0233 44.0489L94.142 37.7239L84.3357 29.5007L76.7931 33.793C74.794 32.8675 72.7001 32.1393 70.5416 31.6189L68.8299 24.1213H54.967L53.2542 31.6259C51.0801 32.1577 48.9935 32.8832 47.0215 33.793L39.4788 29.5007L29.6726 37.7239L34.7912 44.0489C33.7063 45.7026 32.841 47.4524 32.2069 49.2746L23.2587 50.7135V62.3367L32.1996 63.7703C32.8192 65.5795 33.6865 67.3362 34.7912 69.0144L29.6716 75.3376L39.4788 83.5626L47.0215 79.2685C48.9946 80.18 51.0812 80.9065 53.2542 81.4374L54.967 88.9411H68.8299L70.5416 81.4443C72.7001 80.924 74.794 80.1958 76.7931 79.2702L84.3357 83.5626L94.143 75.3376L89.0233 69.0144C90.1281 67.3362 90.9954 65.5795 91.6149 63.7703L100.556 62.3367V50.7135L91.6076 49.2746C90.9736 47.4524 90.1083 45.7026 89.0233 44.0489ZM96.2911 59.3785L88.1362 60.6882L87.8186 61.8145C87.1949 64.0271 86.1412 66.161 84.6866 68.157L83.9713 69.1401L88.6329 74.9011L83.8131 78.9419L76.942 75.032L75.7696 75.6328C73.3915 76.8517 70.8478 77.7353 68.2083 78.2609L66.8651 78.5263L65.3043 85.3647H58.4926L56.9339 78.5351L55.6032 78.2626C52.9231 77.7143 50.3794 76.8289 48.044 75.6327L46.8715 75.032L40.0016 78.9419L35.1817 74.9011L39.8433 69.1401L39.128 68.157C37.6734 66.161 36.6197 64.027 35.996 61.8145L35.6784 60.6882L27.5235 59.3785V53.6682L35.668 52.3602L35.9929 51.2444C36.6467 48.9961 37.7015 46.863 39.128 44.9063L39.8443 43.9231L35.1807 38.1622L40.0016 34.1196L46.8715 38.0304L48.044 37.4296C50.3773 36.2343 52.9211 35.3489 55.6032 34.7989L56.9339 34.5265L58.4926 27.6977H65.3043L66.8651 34.5352L68.2083 34.8024C70.8478 35.3262 73.3915 36.2099 75.7696 37.4287L76.942 38.0303L83.8131 34.1196L88.6339 38.1622L83.9703 43.9231L84.6866 44.9063C86.1131 46.863 87.1679 48.996 87.8218 51.2443L88.1466 52.3602L96.2911 53.6682V59.3785Z" fill="#D012FF"/>
<path d="M65.0442 66.5529C72.2309 65.2236 76.483 59.0182 74.5413 52.6927C72.5997 46.3672 65.1996 42.3169 58.0129 43.6462C50.8261 44.9754 46.5741 51.1808 48.5157 57.5063C50.4573 63.8318 57.8574 67.8821 65.0442 66.5529Z" fill="#D012FF"/>
<path d="M71.4788 99.5974C68.3442 100.062 65.1456 100.313 61.9256 100.313C32.7754 100.313 9.06281 80.4282 9.06281 55.9838C9.06281 44.6646 14.138 33.8818 23.3926 25.6384L16.8035 20.4348C5.97078 30.1088 0 42.7154 0 55.9838C0 84.6126 27.7854 107.912 61.9256 107.912C65.6787 107.912 69.453 107.626 73.0995 107.054L73.9738 111.042L91.6943 99.8836L70.4126 94.7157L71.4788 99.5974Z" fill="#D012FF"/>
<path d="M61.8762 4.10019C59.1126 4.10019 56.3264 4.25201 53.608 4.55607L52.9058 0.0161133L34.5574 10.4446L55.4882 16.5042L54.8086 12.0972C57.1418 11.8314 59.5202 11.6984 61.8762 11.6984C91.0298 11.6984 114.724 31.5866 114.724 56.0148C114.724 66.0445 110.851 75.4852 103.489 83.3493L110.624 88.0413C119.232 78.8284 123.785 67.7542 123.785 56.0148C123.785 27.3886 96.0134 4.10019 61.8762 4.10019Z" fill="#D012FF"/>
</svg>
