<svg width="33" height="32" viewBox="0 0 33 32" fill="none" xmlns="http://www.w3.org/2000/svg">
<g clip-path="url(#clip0_452_377)">
<rect width="22.7489" height="22.7489" transform="matrix(0.721555 -0.692357 0.721555 0.692357 0 15.7505)" fill="black"/>
<path d="M8.2073 7.87531C3.67429 12.2249 3.67429 19.2761 8.2073 23.6257C12.7403 27.9752 20.0889 27.9752 24.6219 23.6257C29.1544 19.2766 29.1544 12.2244 24.6219 7.87531C20.0894 3.52626 12.7403 3.52574 8.2073 7.87531ZM21.4928 15.0545C21.894 15.0545 22.2187 15.3661 22.2182 15.7505C22.2181 16.1354 21.8935 16.447 21.4928 16.4465L17.1461 16.4464L17.1461 20.6459C17.1455 21.0333 16.8183 21.3473 16.4151 21.3473C16.0109 21.3473 15.6836 21.0333 15.6841 20.6459L15.6841 16.4465L11.3373 16.4465C10.9362 16.4465 10.6115 16.1349 10.612 15.7505C10.612 15.3656 10.9367 15.054 11.3373 15.0546L15.6841 15.0546L15.6841 10.8246C15.6841 10.4368 16.0114 10.1227 16.4151 10.1232C16.8193 10.1232 17.1466 10.4372 17.1461 10.8246V15.0546L21.4928 15.0545Z" fill="white"/>
</g>
<defs>
<clipPath id="clip0_452_377">
<rect width="22.7489" height="22.7489" fill="white" transform="matrix(0.721555 -0.692357 0.721555 0.692357 0 15.7505)"/>
</clipPath>
</defs>
</svg>
