<svg width="33" height="31" viewBox="0 0 33 31" fill="none" xmlns="http://www.w3.org/2000/svg">
<path d="M16.25 30.5C7.27675 30.5 0 23.6711 0 15.25C0 6.82895 7.27675 0 16.25 0C25.2232 0 32.5 6.82895 32.5 15.25C32.5 23.6711 25.2232 30.5 16.25 30.5Z" fill="#5181B8"/>
<path fill-rule="evenodd" clip-rule="evenodd" d="M26.6178 10.5072C26.7673 10.0345 26.6178 9.68985 25.8996 9.68985H23.5303C22.9291 9.68985 22.6496 9.98875 22.5001 10.3181C22.5001 10.3181 21.2943 13.0753 19.5881 14.8657C19.0356 15.3842 18.7853 15.5489 18.4831 15.5489C18.3336 15.5489 18.1158 15.3842 18.1158 14.9114V10.5072C18.1158 9.943 17.9403 9.68985 17.4398 9.68985H13.7153C13.3383 9.68985 13.1108 9.95215 13.1108 10.2022C13.1108 10.739 13.9656 10.861 14.0533 12.3708V15.6465C14.0533 16.3632 13.9136 16.4944 13.6146 16.4944C12.8118 16.4944 10.8586 13.725 9.69834 10.556C9.47084 9.93995 9.24334 9.6929 8.63884 9.6929H6.26959C5.59359 9.6929 5.45709 9.9918 5.45709 10.3212C5.45709 10.9098 6.25984 13.8317 9.19784 17.6961C11.1576 20.3343 13.9136 21.7648 16.4258 21.7648C17.9306 21.7648 18.1191 21.4476 18.1191 20.8986V18.9039C18.1191 18.2695 18.2621 18.1414 18.7398 18.1414C19.0908 18.1414 19.6953 18.3061 21.0993 19.5779C22.7048 21.0846 22.9713 21.7617 23.8748 21.7617H26.2441C26.9201 21.7617 27.2581 21.4445 27.0631 20.8162C26.8486 20.191 26.0816 19.2851 25.0643 18.2085C24.5118 17.5954 23.6831 16.9366 23.4328 16.6072C23.0818 16.1833 23.1826 15.9942 23.4328 15.619C23.4296 15.619 26.3156 11.8035 26.6178 10.5072Z" fill="white"/>
</svg>
